<svg xmlns="http://www.w3.org/2000/svg" width="1418.58" height="195.953"><defs><clipPath id="clip-path"><path id="Rectangle_326" data-name="Rectangle 326" fill="none" d="M0 0h1418.58v195.953H0z"/></clipPath><clipPath id="clip-path-2"><path id="Rectangle_325" data-name="Rectangle 325" fill="none" d="M0 0h1418.582v195.953H0z"/></clipPath><clipPath id="clip-path-3"><path id="Rectangle_323" data-name="Rectangle 323" transform="translate(168.06 75.182)" fill="none" d="M0 0h1203.19v120.771H0z"/></clipPath><clipPath id="clip-path-4"><path id="Rectangle_324" data-name="Rectangle 324" fill="none" d="M0 0h1347.88v195.952H0z"/></clipPath></defs><g id="Swooshes" opacity=".21"><g id="Group_417" data-name="Group 417" clip-path="url(#clip-path)"><g id="Group_416" data-name="Group 416"><g id="Group_415" data-name="Group 415" clip-path="url(#clip-path-2)"><path id="Path_196" data-name="Path 196" d="M525.336 195.95h.046z" fill="#226995"/><path id="Path_197" data-name="Path 197" d="M1371.253 115.1c-283.658 46.9-582.397 69.791-845.871 80.85h893.2z" fill="#226995"/><g id="Group_411" data-name="Group 411" opacity=".66" style="isolation:isolate"><g id="Group_410" data-name="Group 410"><g id="Group_409" data-name="Group 409" clip-path="url(#clip-path-3)"><path id="Path_198" data-name="Path 198" d="M1347.884 75.182C959.409 151.476 535.225 183.76 168.06 195.953h357.28C788.827 184.894 1087.582 162 1371.254 115.1z" fill="#226995"/></g></g></g><g id="Group_414" data-name="Group 414" opacity=".33" style="isolation:isolate"><g id="Group_413" data-name="Group 413"><g id="Group_412" data-name="Group 412" clip-path="url(#clip-path-4)"><path id="Path_199" data-name="Path 199" d="M1303.872 0C1025.908 96.449 507.041 180.232 0 195.952h168.059c367.169-12.195 791.349-44.477 1179.824-120.772z" fill="#226995"/></g></g></g></g></g></g></g></svg>